<svg version="1.1" id="圖層_1" xmlns:x="ns_extend;" xmlns:i="ns_ai;" xmlns:graph="ns_graphs;" xmlns="http://www.w3.org/2000/svg" xmlns:xlink="http://www.w3.org/1999/xlink" x="0px" y="0px" viewBox="0 0 53.8 48" style="enable-background:new 0 0 53.8 48;" xml:space="preserve">
 <style type="text/css">
  .st0{fill-rule:evenodd;clip-rule:evenodd;fill:#FFFFFF;}
	.st1{fill-rule:evenodd;clip-rule:evenodd;fill:#E83434;}
	.st2{fill:#E83434;}
 </style>
 <metadata>
  <sfw xmlns="ns_sfw;">
   <slices>
   </slices>
   <sliceSourceBounds bottomLeftOrigin="true" height="48" width="53.8" x="0" y="0.6">
   </sliceSourceBounds>
  </sfw>
 </metadata>
 <g>
  <polygon class="st0" points="1.4,6.2 1.9,44.8 13.4,43.7 17.8,34.8 26.6,34.8 31.2,43.6 40,43.6 42.2,20.6 33.3,8.4 31.4,18.4 
		28.9,21.2 27.8,19.2 17.3,20.1 13.4,8.4 	">
  </polygon>
  <path class="st1" d="M26.8,4v13.2h-8.9V4H0v44h17.8V34.8h8.8L26.7,48h17.8V4L26.8,4z M40,43.6h-8.8v-8.9c-0.1-2.3-2-4.1-4.3-4.2h-9
		c-2.4,0-4.3,1.8-4.5,4.2v9H4.5V8.4h8.9v13.2h19.9c3.2,0,6.7,3.6,6.7,6.8V43.6z">
  </path>
  <g>
   <path class="st2" d="M50,0.3c1.9,0,3.5,1.6,3.5,3.5S51.9,7.3,50,7.3s-3.5-1.6-3.5-3.5S48.1,0.3,50,0.3 M50,0
			c-2.1,0-3.8,1.7-3.8,3.8s1.7,3.8,3.8,3.8s3.8-1.7,3.8-3.8S52.1,0,50,0L50,0z">
   </path>
   <path class="st2" d="M50,0c-2.1,0-3.8,1.7-3.8,3.8s1.7,3.8,3.8,3.8s3.8-1.7,3.8-3.8l0,0C53.8,1.7,52.1,0,50,0z M46.3,3.8
			c0-1.9,1.8-3.6,3.8-3.6c1.9,0,3.5,1.6,3.5,3.6c0.1,0.9-0.5,1.9-1.1,2.5l0,0c-0.1-0.1-0.2-0.2-0.2-0.3c0-0.1,0-0.3,0-0.4V4.9
			c0-0.2-0.1-0.5-0.2-0.7c-0.1-0.1-0.3-0.3-0.5-0.3c0.2-0.1,0.4-0.3,0.6-0.5c0.1-0.2,0.2-0.5,0.2-0.8c0-0.5-0.3-1-0.8-1.2
			c-0.3-0.1-0.7-0.2-1-0.2h-2.5v5.3h0.7V4.2h1.6c0.2,0,0.4,0,0.6,0.1c0.3,0.1,0.4,0.4,0.4,0.7v0.9c0,0.1,0,0.3,0,0.4s0,0.1,0,0.2
			h0.7h0.4l-0.4,0.4l-1.3,0.6h-1.4L48,6.9L47,6l-0.6-1.7L46.3,3.8z M51.3,3.4c-0.2,0.1-0.5,0.2-0.8,0.2h-1.6V1.8h1.7
			c0.2,0,0.4,0,0.6,0.1c0.3,0.1,0.4,0.4,0.4,0.8C51.6,2.9,51.5,3.2,51.3,3.4z">
   </path>
  </g>
 </g>
</svg>